<?xml version="1.0"?>
<svg version="1.1" xmlns="http://www.w3.org/2000/svg" width="223" height="45"><path fill="#000000" d="M23.736,19.588q-3.136,0-5.264,2.268q-2.1,2.24-2.1,5.46l0,11.984l1.764,0l0-8.792l11.256,0l0,8.792l1.764,0l0-11.984q0-3.22-2.1-5.46q-2.184-2.268-5.32-2.268z M29.392,28.772l-11.256,0l0-1.456q0-2.408,1.624-4.172q1.652-1.792,3.976-1.792t4.032,1.792q1.624,1.764,1.624,4.172l0,1.456z M35.88352,39.356l13.692,0l0-1.428l-11.956,0l0-18.228l-1.736,0l0,19.656z M63.45904,19.7l-8.792,0l-1.736,0l0,19.684l1.736,0l0-9.856l8.792,0q2.128,0,3.528-1.4t1.4-3.5q0-1.904-1.4-3.388q-1.484-1.54-3.528-1.54z M63.45904,27.792l-8.792,0l0-6.356l8.792,0q1.288,0,2.268,0.924q0.924,0.98,0.924,2.268q0,1.316-0.924,2.24q-0.98,0.924-2.268,0.924z M87.19856,19.644l-1.764,0l0,8.96l-11.816,0l0-8.96l-1.764,0l0,19.656l1.764,0l0-8.932l11.816,0l0,8.932l1.764,0l0-19.656z M98.95408,19.588q-3.136,0-5.264,2.268q-2.1,2.24-2.1,5.46l0,11.984l1.764,0l0-8.792l11.256,0l0,8.792l1.764,0l0-11.984q0-3.22-2.1-5.46q-2.184-2.268-5.32-2.268z M104.61008,28.772l-11.256,0l0-1.456q0-2.408,1.624-4.172q1.652-1.792,3.976-1.792t4.032,1.792q1.624,1.764,1.624,4.172l0,1.456z"/><path fill="#05bbbe" d="M130.4376,39.3l0-1.764l-4.984,0q-3.472,0-5.824-2.352t-2.352-5.824q0-3.192,2.352-5.488t5.824-2.296l4.984,0l0-1.82l-4.984,0q-4.228,0-7.084,2.8q-2.856,2.772-2.856,6.804q0,4.284,2.856,7.084q2.8,2.856,7.084,2.856l4.984,0z M149.13712,19.7l-1.736,0l0,2.072q0,2.576-1.792,4.312q-1.764,1.68-4.2,1.68q-2.604,0-4.284-1.68t-1.68-4.312l0-2.072l-1.736,0l0,2.072q0,3.136,1.904,5.32q1.876,2.212,4.76,2.408l0,9.828l1.764,0l0-9.828q2.94-0.224,4.956-2.408q2.044-2.184,2.044-5.32l0-2.072z M165.79264,29.304q1.092-0.532,1.792-1.764q0.7-1.176,0.7-2.52q0-2.408-1.624-3.892q-1.624-1.456-4.088-1.456l-7.868,0l-0.336,0l-1.428,0l0,19.628l1.428,0l0.336,0l7.868,0q2.464,0,4.088-1.456q1.624-1.484,1.624-3.892q0-1.316-0.686-2.562t-1.806-2.086z M154.70464,21.1l7.868,0q1.68,0,2.772,1.148q1.176,1.232,1.176,2.772q0,1.26-0.924,2.324q-0.868,0.952-2.296,1.26l-0.728,0l-7.868,0l0-7.504z M162.57264,37.872l-7.868,0l0-7.504l7.868,0l0.728,0q1.428,0.308,2.296,1.26q0.924,1.064,0.924,2.324q0,1.512-1.176,2.744q-1.12,1.176-2.772,1.176z M174.16016,33.924q0-1.344,0.952-2.436q0.952-1.148,2.296-1.148l0.364,0l5.236,0l0-1.736l-5.236,0l-0.364,0q-1.428-0.28-2.338-1.232t-0.91-2.268q0-1.652,0.966-2.618t2.646-0.966l9.52,0l0-1.764l-9.52,0q-2.156,0-3.752,1.596q-1.596,1.54-1.596,3.752q0,1.4,0.532,2.548t1.568,1.652q-1.036,0.756-1.568,1.988t-0.532,2.632q0,2.184,1.596,3.724q1.624,1.624,3.752,1.624l9.52,0l0-1.848l-9.52,0q-1.68,0-2.646-0.952t-0.966-2.548z M199.35568,29.472l2.1,0q2.128,0,3.528-1.4t1.4-3.528q0-1.876-1.4-3.36q-1.484-1.54-3.528-1.54l-8.764,0l-1.736,0l0,19.656l1.736,0l0-9.828l4.564,0l5.964,9.828l2.1,0z M192.69168,27.736l0-6.328l8.764,0q1.288,0,2.268,0.924q0.924,0.924,0.924,2.212q0,1.344-0.924,2.268q-0.98,0.924-2.268,0.924l-8.764,0z"/></svg>
